<svg width="53" height="52" viewBox="0 0 53 52" fill="none" xmlns="http://www.w3.org/2000/svg">
<circle cx="26.2124" cy="26" r="25" fill="white" stroke="url(#paint0_linear_3572_390)" stroke-width="2"/>
<path fill-rule="evenodd" clip-rule="evenodd" d="M36.147 15.9352H39.3205C39.9794 15.9352 40.5121 16.4691 40.5121 17.1269C40.5121 17.7847 39.9794 18.3186 39.3205 18.3186H36.147C35.6299 20.0357 34.0533 21.2977 32.1705 21.2977C30.2876 21.2977 28.711 20.0357 28.1938 18.3185H13.1038C12.446 18.3185 11.9121 17.7846 11.9121 17.1269C11.9121 16.4691 12.446 15.9352 13.1038 15.9352H28.1938C28.711 14.218 30.2877 12.9561 32.1705 12.9561C34.0533 12.9561 35.6298 14.218 36.147 15.9352ZM30.383 17.1269C30.383 18.1124 31.1849 18.9144 32.1705 18.9144C33.1559 18.9144 33.958 18.1124 33.958 17.1269C33.958 16.1413 33.156 15.3394 32.1705 15.3394C31.1849 15.3394 30.383 16.1413 30.383 17.1269ZM36.147 35.0019H39.3205C39.9794 35.0019 40.5121 35.5358 40.5121 36.1936C40.5121 36.8514 39.9794 37.3852 39.3204 37.3852H36.147C35.6298 39.1024 34.0532 40.3644 32.1704 40.3644C30.2876 40.3644 28.7098 39.1024 28.1938 37.3852H13.1038C12.446 37.3852 11.9121 36.8514 11.9121 36.1936C11.9121 35.5358 12.446 35.0019 13.1038 35.0019H28.1939C28.711 33.2847 30.2877 32.0227 32.1705 32.0227C34.0533 32.0227 35.6311 33.2847 36.147 35.0019ZM30.383 36.1936C30.383 37.1791 31.1849 37.9811 32.1705 37.9811C33.1559 37.9811 33.958 37.1791 33.958 36.1936C33.958 35.208 33.156 34.4061 32.1705 34.4061C31.1849 34.4061 30.383 35.208 30.383 36.1936ZM39.3205 25.4686H24.2304C23.7132 23.7514 22.1366 22.4894 20.2538 22.4894C18.371 22.4894 16.7944 23.7514 16.2772 25.4686H13.1038C12.446 25.4686 11.9121 26.0024 11.9121 26.6602C11.9121 27.318 12.446 27.8519 13.1038 27.8519H16.2772C16.7944 29.569 18.371 30.831 20.2538 30.831C22.1366 30.831 23.7132 29.569 24.2303 27.8519H39.3204C39.9794 27.8519 40.5121 27.318 40.5121 26.6602C40.5121 26.0024 39.9794 25.4686 39.3205 25.4686ZM20.2538 28.4477C19.2682 28.4477 18.4663 27.6457 18.4663 26.6602C18.4663 25.6747 19.2682 24.8727 20.2538 24.8727C21.2393 24.8727 22.0413 25.6747 22.0413 26.6602C22.0413 27.6457 21.2393 28.4477 20.2538 28.4477Z" fill="url(#paint1_linear_3572_390)"/>
<defs>
<linearGradient id="paint0_linear_3572_390" x1="0.212403" y1="26" x2="52.2124" y2="26" gradientUnits="userSpaceOnUse">
<stop stop-color="#E35205"/>
<stop offset="1" stop-color="#F98E20"/>
</linearGradient>
<linearGradient id="paint1_linear_3572_390" x1="11.9121" y1="26.6602" x2="40.5121" y2="26.6602" gradientUnits="userSpaceOnUse">
<stop stop-color="#E35205"/>
<stop offset="1" stop-color="#F98E20"/>
</linearGradient>
</defs>
</svg>
